<?xml version="1.0" ?><!DOCTYPE svg  PUBLIC '-//W3C//DTD SVG 1.1//EN'  'http://www.w3.org/Graphics/SVG/1.1/DTD/svg11.dtd'><svg enable-background="new 0 0 100 100" height="100px" id="Layer_1" version="1.1" viewBox="0 0 100 100" width="100px" xml:space="preserve" xmlns="http://www.w3.org/2000/svg" xmlns:xlink="http://www.w3.org/1999/xlink"><g><defs><rect height="100" id="SVGID_1_" width="100"/></defs><path d="M57.689,40.929c0-1.804,1.449-3.266,3.24-3.266c1.786,0,3.236,1.462,3.236,3.266   s-1.45,3.267-3.236,3.267C59.139,44.195,57.689,42.732,57.689,40.929 M47.611,13.106h-0.027v4.477h4.109v-4.346   c1.414-0.717,2.395-2.176,2.395-3.881c0-2.406-1.932-4.355-4.318-4.355c-2.385,0-4.319,1.949-4.319,4.355   C45.45,10.966,46.324,12.353,47.611,13.106 M38.619,44.195c1.787,0,3.237-1.463,3.237-3.267s-1.45-3.266-3.237-3.266   c-1.791,0-3.24,1.462-3.24,3.266S36.828,44.195,38.619,44.195 M49.77,95.001c4.875,0,9.018-3.127,10.591-7.5H39.178   C40.752,91.874,44.894,95.001,49.77,95.001 M16,81.73c0-1.728,1.006-3.207,2.453-3.91V59.302c0-3.651,2.82-6.635,6.385-6.871v-8.96   c0,0,0.867-16.332,14.34-21.412C43.18,20.55,46.834,19.94,50,19.825c3.168,0.115,6.822,0.725,10.82,2.232   c13.476,5.08,14.344,21.412,14.344,21.412v8.961c3.562,0.235,6.383,3.218,6.383,6.87v18.52C82.994,78.523,84,80.004,84,81.73   c0,2.405-1.934,4.354-4.318,4.354s-4.318-1.948-4.318-4.354c0-1.728,1.007-3.207,2.451-3.91V65.439   c-0.804,0.416-1.703,0.664-2.649,0.729v4.303c0.024,0.347,0.053,0.692,0.053,1.048c0,0.377-0.024,0.75-0.053,1.123v0.101H75.16   c-0.575,7.168-6.137,12.911-13.186,13.694l0.006,0.097H50H38.018l0.008-0.097c-7.049-0.783-12.609-6.526-13.184-13.694h-0.004   v-0.101c-0.027-0.373-0.053-0.746-0.053-1.123c0-0.354,0.027-0.701,0.053-1.048V66.17c-0.95-0.064-1.85-0.314-2.653-0.729V77.82   c1.447,0.703,2.453,2.185,2.453,3.912c0,2.404-1.933,4.354-4.319,4.354C17.935,86.086,16,84.137,16,81.73 M57.207,58.956   c0-1.156-0.93-2.097-2.078-2.097c-1.15,0-2.08,0.939-2.08,2.097c0,1.158,0.93,2.1,2.08,2.1   C56.277,61.056,57.207,60.114,57.207,58.956 M62.324,58.956c0-1.156-0.93-2.097-2.078-2.097s-2.08,0.939-2.08,2.097   c0,1.158,0.932,2.1,2.08,2.1S62.324,60.114,62.324,58.956 M67.443,58.956c0-1.156-0.93-2.097-2.078-2.097   c-1.15,0-2.08,0.939-2.08,2.097c0,1.158,0.93,2.1,2.08,2.1C66.514,61.056,67.443,60.114,67.443,58.956 M32.5,41.534   c0,5.564,4.319,5.928,4.319,5.928c1.503,0.479,4.679,0.241,6.116,0c1.323-0.225,6.176-0.648,6.949-0.717   c0.029,0.003,0.076,0.008,0.115,0.01c0.041-0.002,0.087-0.007,0.115-0.01c0.772,0.068,5.625,0.492,6.949,0.717   c1.438,0.241,4.612,0.479,6.116,0c0,0,4.317-0.363,4.317-5.928c0,0,0-6.17-4.317-9.92c-4.188-3.637-10.481-4.426-12.952-4.473   v-0.004c-0.033,0-0.077,0.003-0.113,0.003c-0.037,0-0.082-0.003-0.115-0.003c-0.035,0-0.079,0.003-0.115,0.003   c-0.037,0-0.081-0.003-0.115-0.003v0.004c-2.467,0.047-8.763,0.836-12.95,4.473C32.5,35.364,32.5,41.534,32.5,41.534"/></g></svg>